<svg width="54" height="72" viewBox="0 0 54 72" xmlns="http://www.w3.org/2000/svg" xmlns:xlink="http://www.w3.org/1999/xlink">
  <defs>
    <filter x="-20.1%" y="-63.5%" width="140.2%" height="226.9%" filterUnits="objectBoundingBox" id="a">
      <feGaussianBlur stdDeviation="2.23" in="SourceGraphic"/>
    </filter>
    <filter x="-17%" y="-14.2%" width="134.1%" height="128.4%" filterUnits="objectBoundingBox" id="c">
      <feOffset in="SourceAlpha" result="shadowOffsetOuter1"/>
      <feGaussianBlur stdDeviation="2.5" in="shadowOffsetOuter1" result="shadowBlurOuter1"/>
      <feColorMatrix values="0 0 0 0 0.188235294 0 0 0 0 0.223529412 0 0 0 0 0.301960784 0 0 0 0.304121377 0" in="shadowBlurOuter1"/>
    </filter>
    <path d="M37.62 6.42a22.07 22.07 0 00-31.14 0 21.6 21.6 0 000 30.86L22 52.77 37.5 37.39a21.83 21.83 0 00.12-30.97z" id="b"/>
  </defs>
  <g fill="none" fill-rule="evenodd">
    <g transform="translate(5 5)">
      <ellipse fill="#30394D" opacity=".5" filter="url(#a)" cx="22" cy="56.72" rx="16.67" ry="5.28"/>
      <mask id="d" fill="#fff">
        <use xlink:href="#b"/>
      </mask>
      <g fill-rule="nonzero">
        <use fill="#000" filter="url(#c)" xlink:href="#b"/>
        <use fill="#F9BC00" xlink:href="#b"/>
      </g>
      <g mask="url(#d)" fill="#F53A30">
        <path d="M-5.33-2.64H48v60.68H-5.33z"/>
      </g>
      <g fill="#FFF">
        <path d="M22 36.94A15.23 15.23 0 016.67 21.77C6.67 13.37 13.52 6.6 22 6.6s15.33 6.77 15.33 15.17c0 8.39-6.85 15.17-15.33 15.17z" fill-rule="nonzero"/>
      </g>
    </g>
    <g fill="#0E3B59" fill-rule="nonzero">
      <path d="M36.6 20.63H18.61a.38.38 0 01-.16-.74l9-3.86c.09-.04.2-.04.3 0l8.94 3.84c.17.04.3.2.3.38 0 .21-.18.38-.4.38zM22.4 30.37H20a.4.4 0 01-.4-.4v-8c0-.23.18-.4.4-.4h2.4c.23 0 .4.17.4.4v8a.4.4 0 01-.4.4zM34.77 30.37h-2.4a.4.4 0 01-.4-.4v-8c0-.23.17-.4.4-.4h2.4c.22 0 .4.17.4.4v8a.4.4 0 01-.4.4zM27.39 29.44a3.2 3.2 0 01-3.2-3.32v-3.24c0-.1.04-.21.12-.29a.4.4 0 01.3-.1c1.45.08 1.86-.23 2.5-.82a.4.4 0 01.55 0c.64.6 1.05.9 2.5.82a.4.4 0 01.43.39v3.24a3.2 3.2 0 01-3.2 3.32zM36.08 31.76v-.47c0-.25-.17-.46-.4-.46h-16.6c-.22 0-.4.2-.4.46v.47h17.4zM36.38 32.68H18.39c-.21 0-.39.18-.39.39v1.54c0 .22.18.39.4.39h17.98c.22 0 .4-.17.4-.39v-1.54a.39.39 0 00-.4-.39z"/>
    </g>
  </g>
</svg>
